<svg width="209" height="329" viewBox="0 0 209 329" fill="none" xmlns="http://www.w3.org/2000/svg">
<path d="M27.3936 0C19.7699 0 13.2986 1.61211 7.97969 4.83634C2.66079 8.06057 0.00135851 11.9834 0.00135851 16.6048C0.00135851 21.1187 2.66079 24.9878 7.97969 28.212C13.2986 31.4362 19.7699 33.0483 27.3936 33.0483C34.8401 33.0483 41.2228 31.4362 46.5416 28.212C51.8605 24.9878 54.52 21.1187 54.52 16.6048C54.52 11.9834 51.8605 8.06057 46.5416 4.83634C41.2228 1.61211 34.8401 0 27.3936 0ZM4.52242 77.3814V226.018C4.52242 251.275 13.3872 270.029 31.1169 282.281C48.8465 294.533 94.4855 300.659 122.853 300.659C138.987 300.659 150.954 298.886 158.755 295.339C166.557 291.793 170.457 288.138 170.457 284.377C170.457 280.615 168.241 277.391 163.808 274.704C159.553 272.017 154.5 270.674 148.65 270.674C144.04 270.674 139.342 271.372 134.555 272.77C131.54 273.522 125.778 276.209 117.268 280.83C108.581 285.559 101.311 287.923 95.4607 287.923C91.2056 287.923 64.4486 286.902 60.3708 284.86C56.2929 282.926 49.5823 279.594 47.632 274.865C45.6818 270.244 44.7066 260.141 44.7066 244.558V139.448C44.7066 123.219 45.5045 112.794 47.1001 108.173C48.3412 104.626 50.2915 102.208 52.9509 100.918C55.6104 99.5211 59.2449 98.8226 63.8546 98.8226C68.8189 98.8226 74.847 99.6286 81.9389 101.241L85.6621 95.4371L15.958 77.3814H4.52242Z" fill="#DC241C"/>
<path d="M106.997 226.226V290.156C106.997 303.967 105.222 312.545 108.243 315.89C112.343 320.638 118.547 323.012 126.855 323.012H135.271V329H49.8633V323.012H58.1175C67.3968 323.012 74.0326 319.99 78.0248 313.948C80.1828 310.603 81.2618 302.673 81.2618 290.156V148.378C81.2618 134.567 79.8051 125.989 76.8919 122.644C72.6838 117.896 66.4257 115.523 58.1175 115.523H49.8633V109.534H121.676C141.314 109.534 156.797 111.584 168.127 115.684C179.456 119.677 189.005 126.474 196.774 136.077C204.542 145.68 208.427 157.064 208.427 170.227C208.427 188.138 202.492 202.705 190.623 213.926C178.862 225.148 162.192 230.758 140.612 230.758C135.325 230.758 129.607 230.381 123.457 229.625C117.306 228.87 114.01 227.737 106.997 226.226ZM106.997 217.001C112.716 218.08 114.501 218.889 118.925 219.429C123.349 219.968 127.125 220.238 130.254 220.238C141.476 220.238 151.133 215.922 159.225 207.29C167.425 198.551 171.525 187.275 171.525 173.464C171.525 163.969 169.583 155.175 165.699 147.083C161.814 138.883 156.312 132.786 149.19 128.794C142.069 124.694 133.977 122.644 124.913 122.644C119.41 122.644 115.629 123.669 106.997 125.719V217.001Z" fill="#2C1474"/>
</svg>
